<svg width="496" height="398" viewBox="0 0 496 398" fill="none" xmlns="http://www.w3.org/2000/svg">
<g clip-path="url(#clip0_16_16)">
<path d="M235.329 0.426712C233.779 0.620682 231.376 1.00859 229.943 1.35771C227.773 1.86201 226.804 1.86201 224.053 1.51289C222.038 1.24135 217.853 1.16377 213.358 1.28014C205.646 1.47411 201.345 2.21114 195.571 4.22829C193.556 4.92653 192.394 5.0041 185.496 5.0041C176.7 4.96532 171.663 5.5472 165.54 7.33159C157.093 9.81425 149.343 13.9261 143.763 18.9302L141.631 20.831L138.144 21.0638C129.386 21.6456 122.721 25.9903 109.701 39.5673C106.214 43.2137 101.292 47.9462 98.735 50.1185C90.2487 57.2562 87.575 60.631 84.5912 67.8462C83.6612 70.0961 81.7625 74.3244 80.4062 77.195C77.0737 84.2162 76.6087 85.7291 76.57 89.4143C76.5312 92.0909 76.6862 92.8279 77.655 94.7287L78.7787 96.9398L77.7325 99.3061C74.0125 107.569 76.7637 116.646 86.5675 128.632C87.11 129.253 88.0012 131.309 88.5437 133.171C93 148.61 106.33 158.114 130.239 162.924C132.331 163.312 132.447 163.428 133.067 165.019C133.416 165.911 134.618 167.695 135.741 168.937C137.989 171.497 138.686 173.669 138.841 178.635C138.919 180.497 139.229 181.893 139.81 183.134C140.934 185.462 145.08 189.419 148.955 191.862C150.621 192.91 153.411 194.849 155.194 196.168C164.145 202.879 172.864 207.03 181.854 208.892C192.781 211.103 209.173 210.521 224.944 207.34C226.068 207.107 226.145 207.185 227.424 209.823C230.136 215.525 235.832 222.663 240.405 226.154C241.761 227.163 243.001 228.831 245.249 232.555C251.798 243.455 257.804 254.705 263.074 266.07C266.484 273.363 271.909 277.747 277.45 277.747C286.169 277.708 287.06 274.333 281.906 260.834C279.349 254.161 278.458 251.407 278.729 251.097C278.845 251.019 281.364 251.446 284.309 252.067C288.533 252.998 290.974 253.308 295.856 253.463C299.266 253.58 304.149 253.774 306.706 253.929C310.543 254.123 312.17 254.006 316.006 253.347C332.436 250.36 343.674 245.317 350.261 237.908C352.509 235.425 354.756 231.313 355.183 229.063C355.338 228.21 355.958 226.93 356.539 226.232C358.166 224.408 358.825 222.934 359.368 219.909C359.794 217.698 359.794 216.844 359.368 214.827C359.096 213.469 358.864 212.267 358.825 212.073C358.825 211.918 359.988 211.801 361.46 211.801C364.638 211.801 370.489 210.87 374.131 209.823C387.578 205.866 396.645 194.811 400.094 178.169C401.373 172.079 401.838 166.338 401.838 157.028C401.838 135.111 398.815 119.09 393.119 111.137C392.034 109.625 390.755 107.026 389.825 104.543C386.764 96.2415 383.276 91.0047 378.471 87.5135L375.991 85.6515L375.72 83.2852C375.1 77.3889 371.923 69.2039 368.396 64.549C365.878 61.2129 361.228 56.907 357.74 54.6959C353.206 51.7866 353.206 51.7866 352.703 50.1573C352.083 48.1014 350.416 45.5799 347.704 42.6318C346.464 41.2741 344.255 38.6751 342.86 36.8131C337.706 30.1797 330.925 24.7877 322.206 20.4431C315.968 17.3398 311.434 15.6718 303.606 13.5382C299.77 12.4909 294.888 10.9392 292.756 10.1246C285.394 7.21523 278.07 5.81874 270.049 5.81874C265.321 5.81874 265.05 5.77995 262.299 4.49983C253.89 0.65947 245.016 -0.698227 235.329 0.426712Z" fill="#4E356F"/>
<path d="M10.6175 73.2382C8.44749 74.2856 6.70374 76.5355 5.81249 79.5224C4.99874 82.1602 3.56499 93.6425 2.55749 105.125C0.658743 126.848 -0.465007 176.501 0.697493 187.363C3.21624 210.87 8.91249 237.248 16.3525 259.864C20.2662 271.773 23.87 278.561 30.9225 287.289C37.82 295.901 45.8025 302.379 63.2012 313.473C69.2075 317.314 75.795 321.581 77.81 322.977C92.3412 333.18 102.687 344.429 109.972 358.045C112.569 362.933 114.351 367.083 117.994 376.665C122.76 389.311 125.356 393.617 129.192 395.44C133.106 397.302 146.552 398.504 153.799 397.651C162.285 396.642 170.461 393.578 176.506 389.117C180.381 386.285 185.225 381.358 188.557 376.936C194.874 368.48 194.99 366.23 189.565 358.161C182.822 348.114 178.599 340.201 176.7 333.994C175.46 329.96 174.84 326.507 173.6 317.12C171.314 299.78 167.787 291.013 160.27 284.07C156.395 280.501 152.404 278.173 144.654 274.954C125.899 267.157 120.629 264.596 113.034 259.515C98.425 249.739 87.5362 239.072 74.0125 221.305C61.225 204.47 54.5212 198.263 45.1437 194.539C41.5012 193.065 37.045 192.949 34.6425 194.229C30.9612 196.207 29.6437 199.349 29.915 205.556C30.07 208.814 30.3412 210.405 31.31 213.236C34.7975 223.516 41.8887 234.029 53.8237 246.481C58.7837 251.64 62.2712 255.635 61.845 255.635C61.69 255.635 60.76 255.209 59.7525 254.704C56.6912 253.153 51.8087 249.274 47.0425 244.657C36.1925 234.184 28.4812 222.857 24.9162 212.228C22.475 204.935 22.7075 197.836 25.6137 192.987C30.1862 185.307 30.6512 182.979 29.6437 173.049C28.7525 164.359 28.675 151.558 29.4112 132.861C29.915 119.206 29.6437 109.237 28.4425 98.3363C27.435 88.9487 26.4662 84.3326 24.9937 81.1904C21.8162 74.6347 15.345 71.0659 10.6175 73.2382Z" fill="#4E356F"/>
<path d="M479.221 73.1219C475.734 74.402 472.595 77.6604 470.619 81.9663C468.875 85.7679 467.209 98.1035 466.55 112.379C466.24 119.012 466.279 124.637 466.744 138.485C467.402 156.95 467.325 162.226 466.279 173.32C465.349 182.902 465.891 185.423 470.386 192.987C473.292 197.836 473.525 204.935 471.084 212.228C467.519 222.857 459.807 234.184 448.957 244.658C444.191 249.274 439.309 253.153 436.247 254.705C435.24 255.209 434.31 255.636 434.155 255.636C433.69 255.636 436.557 252.338 441.866 246.752C448.957 239.304 452.794 234.727 456.514 229.102C462.675 219.947 465.775 212.344 466.085 205.711C466.356 199.582 464.961 196.168 461.435 194.267C459.032 192.987 454.576 193.065 450.895 194.5C441.75 197.991 434.736 204.508 421.987 221.305C408.464 239.072 397.575 249.739 382.966 259.515C375.371 264.596 370.101 267.157 351.346 274.954C343.519 278.212 339.527 280.54 335.73 284.108C328.6 290.703 324.841 299.625 322.787 314.482C321.315 325.266 320.501 329.843 319.494 333.412C317.711 339.541 313.604 347.416 306.784 357.618C300.971 366.346 301.049 368.363 307.442 376.936C316.742 389.35 327.864 395.944 342.201 397.651C349.447 398.504 362.894 397.302 366.807 395.44C370.605 393.655 373.317 389.156 377.619 377.635C385.33 357.036 391.065 347.416 402.38 336.128C409.742 328.757 415.206 324.684 432.799 313.474C450.197 302.379 458.18 295.901 465.077 287.289C471.975 278.716 475.695 271.812 479.454 260.484C488.482 233.292 494.876 200.823 495.845 177.587C496.077 171.574 495.147 132.628 494.45 119.478C493.597 103.845 491.427 83.4404 490.149 79.4837C488.366 73.8589 484.065 71.3374 479.221 73.1219Z" fill="#4E356F"/>
<path d="M37.7812 99.4612C36.0375 100.237 34.6425 102.099 34.1 104.271C33.79 105.707 33.6737 115.715 33.79 143.373C33.9062 179.682 33.9062 180.613 34.6812 182.126C35.2625 183.289 35.7275 183.716 36.5025 183.794C37.9362 183.949 39.7962 182.94 40.4937 181.544C40.9587 180.652 49.8712 143.063 53.4362 126.964C55.5287 117.654 53.475 108.694 48.05 103.185C44.64 99.694 40.4937 98.2199 37.7812 99.4612Z" fill="#4E356F"/>
<path d="M453.297 99.5C448.299 101.323 443.92 107.026 442.331 113.698C441.517 117.228 441.595 122.659 442.564 126.964C446.129 143.063 455.041 180.652 455.506 181.544C456.204 182.94 458.064 183.949 459.497 183.794C460.272 183.716 460.737 183.289 461.319 182.126C462.094 180.613 462.094 179.682 462.21 143.257C462.365 102.254 462.404 102.991 460.079 100.78C458.102 98.9181 456.01 98.4914 453.297 99.5Z" fill="#4E356F"/>
<path d="M62.4262 124.016C60.3725 125.025 59.1712 127.43 57.0012 134.723C52.8937 148.649 45.725 178.945 45.725 182.397C45.725 186.664 50.4137 191.94 53.2425 190.893C56.0325 189.806 59.4812 181.971 66.6112 160.597C72.7725 142.171 73.5475 138.524 72.5012 133.404C71.5712 128.943 68.82 124.792 66.1462 123.783C64.6737 123.202 63.9762 123.24 62.4262 124.016Z" fill="#4E356F"/>
<path d="M429.738 123.783C427.103 124.87 424.39 129.059 423.499 133.404C422.763 136.934 423.266 141.511 425.049 147.213C431.326 167.618 438.224 186.121 440.626 189.069C442.796 191.668 444.269 191.668 447.098 189.108C449.345 187.091 450.43 184.298 450.159 181.35C449.345 173.01 438.495 130.65 436.131 126.615C434.62 124.016 431.985 122.852 429.738 123.783Z" fill="#4E356F"/>
<path d="M77.2675 150.86C75.2138 152.101 73.7025 154.39 70.2925 161.372C64.2087 173.747 61.1862 181.583 59.9075 188.488C58.7837 194.423 59.21 197.991 61.3025 200.397C62.3487 201.599 62.6975 201.754 64.0925 201.638L65.6425 201.521L68.2 196.866C69.595 194.306 72.7725 188.604 75.2525 184.182C82.5375 171.148 84.9788 164.747 84.9788 158.851C85.0175 154.778 83.6613 152.101 80.91 150.666C79.515 149.929 78.7013 149.968 77.2675 150.86Z" fill="#4E356F"/>
<path d="M415.206 150.588C412.3 152.179 410.982 154.739 411.021 158.851C411.021 165.717 413.307 171.07 425.397 192.599C427.567 196.44 429.582 200.047 429.892 200.629C430.396 201.521 430.745 201.715 431.985 201.715C434.775 201.715 436.712 198.535 436.712 193.918C436.712 189.108 434.426 180.69 430.9 172.467C427.645 164.902 422.414 154.584 420.98 152.877C418.849 150.394 416.911 149.619 415.206 150.588Z" fill="#4E356F"/>
</g>
<defs>
<clipPath id="clip0_16_16">
<rect width="496" height="398" fill="white"/>
</clipPath>
</defs>
</svg>
